999
dxfrw 0.6.3
  0
SECTION
  2
HEADER
  9
$ACADVER
  1
AC1021
  9
$DWGCODEPAGE
  3
ANSI_1252
  9
$INSBASE
 10
0
 20
0
 30
0
  9
$EXTMIN
 10
1e+020
 20
1e+020
 30
1e+020
  9
$EXTMAX
 10
-1e+020
 20
-1e+020
 30
-1e+020
  9
$LIMMIN
 10
0
 20
0
  9
$LIMMAX
 10
420
 20
297
  9
$ORTHOMODE
 70
    0
  9
$REGENMODE
 70
    1
  9
$FILLMODE
 70
    1
  9
$QTEXTMODE
 70
    0
  9
$MIRRTEXT
 70
    0
  9
$LTSCALE
 40
1
  9
$ATTMODE
 70
    0
  9
$TEXTSIZE
 40
2.5
  9
$TRACEWID
 40
15.68
  9
$TEXTSTYLE
  7
STANDARD
  9
$CLAYER
  8
0
  9
$CELTYPE
  6
BYLAYER
  9
$CECOLOR
 62
  256
  9
$CELTSCALE
 40
1
  9
$DISPSILH
 70
    0
  9
$DIMSCALE
 40
1
  9
$DIMASZ
 40
2.5
  9
$DIMEXO
 40
0.625
  9
$DIMDLI
 40
3.75
  9
$DIMRND
 40
0
  9
$DIMDLE
 40
0
  9
$DIMEXE
 40
1.25
  9
$DIMTP
 40
0
  9
$DIMTM
 40
0
  9
$DIMTXT
 40
2.5
  9
$DIMCEN
 40
2.5
  9
$DIMTSZ
 40
0
  9
$DIMTOL
 70
    0
  9
$DIMLIM
 70
    0
  9
$DIMTIH
 70
    0
  9
$DIMTOH
 70
    0
  9
$DIMSE1
 70
    0
  9
$DIMSE2
 70
    0
  9
$DIMTAD
 70
    1
  9
$DIMZIN
 70
    8
  9
$DIMBLK
  1

  9
$DIMASO
 70
    1
  9
$DIMSHO
 70
    1
  9
$DIMPOST
  1

  9
$DIMAPOST
  1

  9
$DIMALT
 70
    0
  9
$DIMALTD
 70
    3
  9
$DIMALTF
 40
0.03937
  9
$DIMLFAC
 40
1
  9
$DIMTOFL
 70
    1
  9
$DIMTVP
 40
0
  9
$DIMTIX
 70
    0
  9
$DIMSOXD
 70
    0
  9
$DIMSAH
 70
    0
  9
$DIMBLK1
  1

  9
$DIMBLK2
  1

  9
$DIMSTYLE
  2
STANDARD
  9
$DIMCLRD
 70
    0
  9
$DIMCLRE
 70
    0
  9
$DIMCLRT
 70
    0
  9
$DIMTFAC
 40
1
  9
$DIMGAP
 40
0.625
  9
$DIMJUST
 70
    0
  9
$DIMSD1
 70
    0
  9
$DIMSD2
 70
    0
  9
$DIMTOLJ
 70
    0
  9
$DIMTZIN
 70
    8
  9
$DIMALTZ
 70
    0
  9
$DIMALTTZ
 70
    0
  9
$DIMUPT
 70
    0
  9
$DIMDEC
 70
    2
  9
$DIMTDEC
 70
    2
  9
$DIMALTU
 70
    2
  9
$DIMALTTD
 70
    3
  9
$DIMTXSTY
  7
STANDARD
  9
$DIMAUNIT
 70
    0
  9
$DIMADEC
 70
    0
  9
$DIMALTRND
 40
0
  9
$DIMAZIN
 70
    0
  9
$DIMDSEP
 70
   44
  9
$DIMATFIT
 70
    3
  9
$DIMFRAC
 70
    0
  9
$DIMLDRBLK
  1
STANDARD
  9
$DIMLUNIT
 70
    2
  9
$DIMLWD
 70
   -2
  9
$DIMLWE
 70
   -2
  9
$DIMTMOVE
 70
    0
  9
$DIMFXL
 40
1
  9
$DIMFXLON
 70
    0
  9
$DIMJOGANG
 40
0.7854
  9
$DIMTFILL
 70
    0
  9
$DIMTFILLCLR
 70
    0
  9
$DIMARCSYM
 70
    0
  9
$DIMLTYPE
  6

  9
$DIMLTEX1
  6

  9
$DIMLTEX2
  6

  9
$LUNITS
 70
    2
  9
$LUPREC
 70
    4
  9
$SKETCHINC
 40
1
  9
$FILLETRAD
 40
0
  9
$AUNITS
 70
    0
  9
$AUPREC
 70
    2
  9
$MENU
  1
.
  9
$ELEVATION
 40
0
  9
$PELEVATION
 40
0
  9
$THICKNESS
 40
0
  9
$LIMCHECK
 70
    0
  9
$CHAMFERA
 40
0
  9
$CHAMFERB
 40
0
  9
$CHAMFERC
 40
0
  9
$CHAMFERD
 40
0
  9
$SKPOLY
 70
    0
  9
$USRTIMER
 70
    1
  9
$ANGBASE
 50
0
  9
$ANGDIR
 70
    0
  9
$PDMODE
 70
   34
  9
$PDSIZE
 40
0
  9
$PLINEWID
 40
0
  9
$SPLFRAME
 70
    0
  9
$SPLINETYPE
 70
    2
  9
$SPLINESEGS
 70
    8
  9
$HANDSEED
  5
20000
  9
$SURFTAB1
 70
    6
  9
$SURFTAB2
 70
    6
  9
$SURFTYPE
 70
    6
  9
$SURFU
 70
    6
  9
$SURFV
 70
    6
  9
$UCSBASE
  2

  9
$UCSNAME
  2

  9
$UCSORG
 10
0
 20
0
 30
0
  9
$UCSXDIR
 10
1
 20
0
 30
0
  9
$UCSYDIR
 10
0
 20
1
 30
0
  9
$UCSORTHOREF
  2

  9
$UCSORTHOVIEW
 70
    0
  9
$UCSORGTOP
 10
0
 20
0
 30
0
  9
$UCSORGBOTTOM
 10
0
 20
0
 30
0
  9
$UCSORGLEFT
 10
0
 20
0
 30
0
  9
$UCSORGRIGHT
 10
0
 20
0
 30
0
  9
$UCSORGFRONT
 10
0
 20
0
 30
0
  9
$UCSORGBACK
 10
0
 20
0
 30
0
  9
$PUCSBASE
  2

  9
$PUCSNAME
  2

  9
$PUCSORG
 10
0
 20
0
 30
0
  9
$PUCSXDIR
 10
1
 20
0
 30
0
  9
$PUCSYDIR
 10
0
 20
1
 30
0
  9
$PUCSORTHOREF
  2

  9
$PUCSORTHOVIEW
 70
    0
  9
$PUCSORGTOP
 10
0
 20
0
 30
0
  9
$PUCSORGBOTTOM
 10
0
 20
0
 30
0
  9
$PUCSORGLEFT
 10
0
 20
0
 30
0
  9
$PUCSORGRIGHT
 10
0
 20
0
 30
0
  9
$PUCSORGFRONT
 10
0
 20
0
 30
0
  9
$PUCSORGBACK
 10
0
 20
0
 30
0
  9
$USERI1
 70
    0
  9
$USERI2
 70
    0
  9
$USERI3
 70
    0
  9
$USERI4
 70
    0
  9
$USERI5
 70
    0
  9
$USERR1
 40
0
  9
$USERR2
 40
0
  9
$USERR3
 40
0
  9
$USERR4
 40
0
  9
$USERR5
 40
0
  9
$WORLDVIEW
 70
    1
  9
$SHADEDGE
 70
    3
  9
$SHADEDIF
 70
   70
  9
$TILEMODE
 70
    1
  9
$MAXACTVP
 70
   64
  9
$PINSBASE
 10
0
 20
0
 30
0
  9
$PLIMCHECK
 70
    0
  9
$PEXTMIN
 10
0
 20
0
 30
0
  9
$PEXTMAX
 10
0
 20
0
 30
0
  9
$PLIMMIN
 10
0
 20
0
  9
$PLIMMAX
 10
297
 20
210
  9
$UNITMODE
 70
    0
  9
$VISRETAIN
 70
    1
  9
$PLINEGEN
 70
    0
  9
$PSLTSCALE
 70
    1
  9
$TREEDEPTH
 70
 3020
  9
$CMLSTYLE
  2
Standard
  9
$CMLJUST
 70
    0
  9
$CMLSCALE
 40
20
  9
$PROXYGRAPHICS
 70
    1
  9
$MEASUREMENT
 70
    1
  9
$CELWEIGHT
370
   -1
  9
$ENDCAPS
280
    0
  9
$JOINSTYLE
280
    0
  9
$LWDISPLAY
290
    0
  9
$INSUNITS
 70
    0
  9
$HYPERLINKBASE
  1

  9
$STYLESHEET
  1

  9
$XEDIT
290
    1
  9
$CEPSNTYPE
380
    0
  9
$PSTYLEMODE
290
    1
  9
$EXTNAMES
290
    1
  9
$PSVPSCALE
 40
0
  9
$OLESTARTUP
290
    0
  9
$SORTENTS
280
  127
  9
$INDEXCTL
280
    0
  9
$HIDETEXT
280
    1
  9
$XCLIPFRAME
290
    0
  9
$HALOGAP
280
    0
  9
$OBSCOLOR
 70
  257
  9
$OBSLTYPE
280
    0
  9
$INTERSECTIONDISPLAY
280
    0
  9
$INTERSECTIONCOLOR
 70
  257
  9
$DIMASSOC
280
    1
  9
$PROJECTNAME
  1

  9
$CAMERADISPLAY
290
    0
  9
$LENSLENGTH
 40
50
  9
$CAMERAHEIGHT
 40
0
  9
$STEPSPERSEC
 40
2
  9
$STEPSIZE
 40
50
  9
$3DDWFPREC
 40
2
  9
$PSOLWIDTH
 40
5
  9
$PSOLHEIGHT
 40
80
  9
$LOFTANG1
 40
1.570796326794897
  9
$LOFTANG2
 40
1.570796326794897
  9
$LOFTMAG1
 40
0
  9
$LOFTMAG2
 40
0
  9
$LOFTPARAM
 70
    7
  9
$LOFTNORMALS
280
    1
  9
$LATITUDE
 40
1
  9
$LONGITUDE
 40
1
  9
$NORTHDIRECTION
 40
0
  9
$TIMEZONE
 70
-8000
  9
$LIGHTGLYPHDISPLAY
280
    1
  9
$TILEMODELIGHTSYNCH
280
    1
  9
$SOLIDHIST
280
    1
  9
$SHOWHIST
280
    1
  9
$DWFFRAME
280
    2
  9
$DGNFRAME
280
    0
  9
$REALWORLDSCALE
290
    1
  9
$INTERFERECOLOR
 62
    1
  9
$CSHADOW
280
    0
  9
$SHADOWPLANELOCATION
 40
0
  0
ENDSEC
  0
SECTION
  2
CLASSES
  0
ENDSEC
  0
SECTION
  2
TABLES
  0
TABLE
  2
VPORT
  5
8
330
0
100
AcDbSymbolTable
 70
    1
  0
VPORT
  5
31
330
2
100
AcDbSymbolTableRecord
100
AcDbViewportTableRecord
  2
*ACTIVE
 70
    0
 10
0
 20
0
 11
1
 21
1
 12
0.651828
 22
-0.16
 13
0
 23
0
 14
10
 24
10
 15
10
 25
10
 16
0
 26
0
 36
1
 17
0
 27
0
 37
0
 40
5.13732
 41
2.4426877
 42
50
 43
0
 44
0
 50
0
 51
0
 71
    0
 72
  100
 73
    1
 74
    3
 75
    0
 76
    0
 77
    0
 78
    0
281
    0
 65
    1
110
0
120
0
130
0
111
1
121
0
131
0
112
0
122
1
132
0
 79
    0
146
0
348
10020
 60
    7
 61
    5
292
1
282
    1
141
0
142
0
 63
  250
421
3358443
  0
ENDTAB
  0
TABLE
  2
LTYPE
  5
5
330
0
100
AcDbSymbolTable
 70
    4
  0
LTYPE
  5
14
330
5
100
AcDbSymbolTableRecord
100
AcDbLinetypeTableRecord
  2
ByBlock
 70
    0
  3

 72
   65
 73
    0
 40
0
  0
LTYPE
  5
15
330
5
100
AcDbSymbolTableRecord
100
AcDbLinetypeTableRecord
  2
ByLayer
 70
    0
  3

 72
   65
 73
    0
 40
0
  0
LTYPE
  5
16
330
5
100
AcDbSymbolTableRecord
100
AcDbLinetypeTableRecord
  2
Continuous
 70
    0
  3
Solid line
 72
   65
 73
    0
 40
0
  0
LTYPE
  5
32
330
5
100
AcDbSymbolTableRecord
100
AcDbLinetypeTableRecord
  2
DASHED
 70
    0
  3

 72
   65
 73
    2
 40
3
 49
1
 74
    0
 49
-2
 74
    0
  0
LTYPE
  5
33
330
5
100
AcDbSymbolTableRecord
100
AcDbLinetypeTableRecord
  2
DASHED
 70
    0
  3

 72
   65
 73
    2
 40
2
 49
1
 74
    0
 49
-1
 74
    0
  0
LTYPE
  5
34
330
5
100
AcDbSymbolTableRecord
100
AcDbLinetypeTableRecord
  2
DASHEDX2
 70
    0
  3

 72
   65
 73
    2
 40
3
 49
2
 74
    0
 49
-1
 74
    0
  0
LTYPE
  5
35
330
5
100
AcDbSymbolTableRecord
100
AcDbLinetypeTableRecord
  2
DASHDOT
 70
    0
  3

 72
   65
 73
    4
 40
3
 49
1
 74
    0
 49
-1
 74
    0
 49
0
 74
    0
 49
-1
 74
    0
  0
LTYPE
  5
36
330
5
100
AcDbSymbolTableRecord
100
AcDbLinetypeTableRecord
  2
DIVIDE
 70
    0
  3

 72
   65
 73
    6
 40
4
 49
1
 74
    0
 49
-1
 74
    0
 49
0
 74
    0
 49
-1
 74
    0
 49
0
 74
    0
 49
-1
 74
    0
  0
LTYPE
  5
37
330
5
100
AcDbSymbolTableRecord
100
AcDbLinetypeTableRecord
  2
DOT
 70
    0
  3

 72
   65
 73
    2
 40
1
 49
1
 74
    0
 49
0
 74
    0
  0
ENDTAB
  0
TABLE
  2
LAYER
  5
2
330
0
100
AcDbSymbolTable
 70
    1
  0
LAYER
  5
38
330
2
100
AcDbSymbolTableRecord
100
AcDbLayerTableRecord
  2
dimensions
 70
    0
 62
    7
  6
CONTINUOUS
370
   -3
390
F
  0
LAYER
  5
39
330
2
100
AcDbSymbolTableRecord
100
AcDbLayerTableRecord
  2
text
 70
    0
 62
    7
  6
CONTINUOUS
370
   -3
390
F
  0
LAYER
  5
3A
330
2
100
AcDbSymbolTableRecord
100
AcDbLayerTableRecord
  2
s001-#def-active-grp
 70
    0
 62
    7
  6
CONTINUOUS
370
   -3
390
F
  0
LAYER
  5
3B
330
2
100
AcDbSymbolTableRecord
100
AcDbLayerTableRecord
  2
s100-new-custom-1
 70
    0
 62
    7
  6
CONTINUOUS
370
   -3
390
F
  0
LAYER
  5
10
330
2
100
AcDbSymbolTableRecord
100
AcDbLayerTableRecord
  2
0
 70
    0
 62
    7
  6
CONTINUOUS
370
   -3
390
F
  0
ENDTAB
  0
TABLE
  2
STYLE
  5
3
330
0
100
AcDbSymbolTable
 70
    3
  0
STYLE
  5
3C
330
2
100
AcDbSymbolTableRecord
100
AcDbTextStyleTableRecord
  2
unicode
 70
    0
 40
0
 41
1
 50
0
 71
    0
 42
1
  3
unicode
  4

  0
STYLE
  5
3D
330
2
100
AcDbSymbolTableRecord
100
AcDbTextStyleTableRecord
  2
Standard
 70
    0
 40
0
 41
1
 50
0
 71
    0
 42
1
  3
txt
  4

  0
ENDTAB
  0
TABLE
  2
VIEW
  5
6
330
0
100
AcDbSymbolTable
 70
    0
  0
ENDTAB
  0
TABLE
  2
UCS
  5
7
330
0
100
AcDbSymbolTable
 70
    0
  0
ENDTAB
  0
TABLE
  2
APPID
  5
9
330
0
100
AcDbSymbolTable
 70
    1
  0
APPID
  5
12
330
9
100
AcDbSymbolTableRecord
100
AcDbRegAppTableRecord
  2
ACAD
 70
    0
  0
ENDTAB
  0
TABLE
  2
DIMSTYLE
  5
A
330
0
100
AcDbSymbolTable
 70
    1
100
AcDbDimStyleTable
 71
    1
  0
DIMSTYLE
105
3E
330
A
100
AcDbSymbolTableRecord
100
AcDbDimStyleTableRecord
  2
Standard
 70
    0
 40
1
 41
2.5
 42
0.625
 43
3.75
 44
1.25
 45
0
 46
0
 47
0
 48
0
140
2.5
141
2.5
142
0
143
0.03937007874015748
144
1
145
0
146
1
147
0.625
148
0
 71
    0
 72
    0
 73
    0
 74
    0
 75
    0
 76
    0
 77
    1
 78
    8
 79
    0
170
    0
171
    3
172
    1
173
    0
174
    0
175
    0
176
    0
177
    0
178
    0
179
    0
271
    2
272
    2
273
    2
274
    3
275
    0
276
    0
277
    2
278
   44
279
    0
280
    0
281
    0
282
    0
283
    0
284
    8
285
    0
286
    0
288
    0
289
    3
341

371
   -2
372
   -2
  0
ENDTAB
  0
TABLE
  2
BLOCK_RECORD
  5
1
330
0
100
AcDbSymbolTable
 70
    2
  0
BLOCK_RECORD
  5
1F
330
1
100
AcDbSymbolTableRecord
100
AcDbBlockTableRecord
  2
*Model_Space
 70
    0
280
    1
281
    0
  0
BLOCK_RECORD
  5
1E
330
1
100
AcDbSymbolTableRecord
100
AcDbBlockTableRecord
  2
*Paper_Space
 70
    0
280
    1
281
    0
  0
ENDTAB
  0
ENDSEC
  0
SECTION
  2
BLOCKS
  0
BLOCK
  5
20
330
1F
100
AcDbEntity
  8
0
100
AcDbBlockBegin
  2
*Model_Space
 70
    0
 10
0
 20
0
 30
0
  3
*Model_Space
  1

  0
ENDBLK
  5
21
330
1F
100
AcDbEntity
  8
0
100
AcDbBlockEnd
  0
BLOCK
  5
1C
330
1B
100
AcDbEntity
  8
0
100
AcDbBlockBegin
  2
*Paper_Space
 70
    0
 10
0
 20
0
 30
0
  3
*Paper_Space
  1

  0
ENDBLK
  5
1D
330
1F
100
AcDbEntity
  8
0
100
AcDbBlockEnd
  0
ENDSEC
  0
SECTION
  2
ENTITIES
  0
POLYLINE
  5
3F
100
AcDbEntity
  8
s100-new-custom-1
  6
CONTINUOUS
 62
    7
420
    0
370
  211
100
AcDb3dPolyline
 10
0
 20
0
 30
0
 70
    8
  0
VERTEX
  5
40
100
AcDbEntity
  8
s100-new-custom-1
  6
CONTINUOUS
 62
    7
420
    0
370
  211
100
AcDbVertex
100
AcDb3dPolylineVertex
 10
1.286153771528471e-030
 20
-5.048837386273291e-031
 30
0
  0
VERTEX
  5
41
100
AcDbEntity
  8
s100-new-custom-1
  6
CONTINUOUS
 62
    7
420
    0
370
  211
100
AcDbVertex
100
AcDb3dPolylineVertex
 10
20.81550914243137
 20
38.56793254028601
 30
31.47599184669344
  0
VERTEX
  5
42
100
AcDbEntity
  8
s100-new-custom-1
  6
CONTINUOUS
 62
    7
420
    0
370
  211
100
AcDbVertex
100
AcDb3dPolylineVertex
 10
-17.8865980807925
 20
59.24180091920751
 30
0
  0
SEQEND
  5
43
100
AcDbEntity
  8
s100-new-custom-1
  6
CONTINUOUS
 62
    7
420
    0
370
  211
  0
POLYLINE
  5
44
100
AcDbEntity
  8
s100-new-custom-1
  6
CONTINUOUS
 62
    7
420
    0
370
  211
100
AcDb3dPolyline
 10
0
 20
0
 30
0
 70
    8
  0
VERTEX
  5
45
100
AcDbEntity
  8
s100-new-custom-1
  6
CONTINUOUS
 62
    7
420
    0
370
  211
100
AcDbVertex
100
AcDb3dPolylineVertex
 10
-17.8865980807925
 20
17.89406416136451
 30
0
  0
VERTEX
  5
46
100
AcDbEntity
  8
s100-new-custom-1
  6
CONTINUOUS
 62
    7
420
    0
370
  211
100
AcDbVertex
100
AcDb3dPolylineVertex
 10
20.81550914243137
 20
38.56793254028601
 30
31.47599184669344
  0
VERTEX
  5
47
100
AcDbEntity
  8
s100-new-custom-1
  6
CONTINUOUS
 62
    7
420
    0
370
  211
100
AcDbVertex
100
AcDb3dPolylineVertex
 10
-4.008400000000008
 20
73.11999899999999
 30
0
  0
VERTEX
  5
48
100
AcDbEntity
  8
s100-new-custom-1
  6
CONTINUOUS
 62
    7
420
    0
370
  211
100
AcDbVertex
100
AcDb3dPolylineVertex
 10
34.13058498891849
 20
38.56793254028601
 30
31.47599184669344
  0
VERTEX
  5
49
100
AcDbEntity
  8
s100-new-custom-1
  6
CONTINUOUS
 62
    7
420
    0
370
  211
100
AcDbVertex
100
AcDb3dPolylineVertex
 10
20.81550914243137
 20
38.56793254028601
 30
31.47599184669344
  0
SEQEND
  5
4A
100
AcDbEntity
  8
s100-new-custom-1
  6
CONTINUOUS
 62
    7
420
    0
370
  211
  0
POLYLINE
  5
4B
100
AcDbEntity
  8
s100-new-custom-1
  6
CONTINUOUS
 62
    7
420
    0
370
  211
100
AcDb3dPolyline
 10
0
 20
0
 30
0
 70
    8
  0
VERTEX
  5
4C
100
AcDbEntity
  8
s100-new-custom-1
  6
CONTINUOUS
 62
    7
420
    0
370
  211
100
AcDbVertex
100
AcDb3dPolylineVertex
 10
34.13058498891849
 20
38.56793254028601
 30
31.47599184669344
  0
VERTEX
  5
4D
100
AcDbEntity
  8
s100-new-custom-1
  6
CONTINUOUS
 62
    7
420
    0
370
  211
100
AcDbVertex
100
AcDb3dPolylineVertex
 10
54.98312481501049
 20
59.65499999999999
 30
48.68553147496697
  0
VERTEX
  5
4E
100
AcDbEntity
  8
s100-new-custom-1
  6
CONTINUOUS
 62
    7
420
    0
370
  211
100
AcDbVertex
100
AcDb3dPolylineVertex
 10
63.79007518498949
 20
59.65499999999999
 30
48.68553147496697
  0
VERTEX
  5
4F
100
AcDbEntity
  8
s100-new-custom-1
  6
CONTINUOUS
 62
    7
420
    0
370
  211
100
AcDbVertex
100
AcDb3dPolylineVertex
 10
99.34518833097394
 20
23.7
 30
19.34200144089711
  0
VERTEX
  5
50
100
AcDbEntity
  8
s100-new-custom-1
  6
CONTINUOUS
 62
    7
420
    0
370
  211
100
AcDbVertex
100
AcDb3dPolylineVertex
 10
126.9907550321132
 20
23.7
 30
19.34200144089711
  0
VERTEX
  5
51
100
AcDbEntity
  8
s100-new-custom-1
  6
CONTINUOUS
 62
    7
420
    0
370
  211
100
AcDbVertex
100
AcDb3dPolylineVertex
 10
151.1816
 20
-5.048837386273291e-031
 30
0
  0
SEQEND
  5
52
100
AcDbEntity
  8
s100-new-custom-1
  6
CONTINUOUS
 62
    7
420
    0
370
  211
  0
POLYLINE
  5
53
100
AcDbEntity
  8
s001-#def-active-grp
  6
CONTINUOUS
 62
    7
420
    0
370
  211
100
AcDb2dPolyline
 10
0
 20
0
 30
0
 70
    0
  0
VERTEX
  5
54
100
AcDbEntity
  8
s001-#def-active-grp
  6
CONTINUOUS
 62
    7
420
    0
370
  211
100
AcDbVertex
100
AcDb2dVertex
 10
-4.008400000000008
 20
119.31
 30
0
  0
VERTEX
  5
55
100
AcDbEntity
  8
s001-#def-active-grp
  6
CONTINUOUS
 62
    7
420
    0
370
  211
100
AcDbVertex
100
AcDb2dVertex
 10
122.7816
 20
119.31
 30
0
  0
VERTEX
  5
56
100
AcDbEntity
  8
s001-#def-active-grp
  6
CONTINUOUS
 62
    7
420
    0
370
  211
100
AcDbVertex
100
AcDb2dVertex
 10
122.7816
 20
47.4
 30
0
  0
VERTEX
  5
57
100
AcDbEntity
  8
s001-#def-active-grp
  6
CONTINUOUS
 62
    7
420
    0
370
  211
100
AcDbVertex
100
AcDb2dVertex
 10
151.1816
 20
47.4
 30
0
  0
VERTEX
  5
58
100
AcDbEntity
  8
s001-#def-active-grp
  6
CONTINUOUS
 62
    7
420
    0
370
  211
100
AcDbVertex
100
AcDb2dVertex
 10
151.1816
 20
-5.048837386273291e-031
 30
0
  0
VERTEX
  5
59
100
AcDbEntity
  8
s001-#def-active-grp
  6
CONTINUOUS
 62
    7
420
    0
370
  211
100
AcDbVertex
100
AcDb2dVertex
 10
1.286153771528471e-030
 20
-5.048837386273291e-031
 30
0
  0
VERTEX
  5
5A
100
AcDbEntity
  8
s001-#def-active-grp
  6
CONTINUOUS
 62
    7
420
    0
370
  211
100
AcDbVertex
100
AcDb2dVertex
 10
-17.8865980807925
 20
17.89406416136451
 30
0
  0
VERTEX
  5
5B
100
AcDbEntity
  8
s001-#def-active-grp
  6
CONTINUOUS
 62
    7
420
    0
370
  211
100
AcDbVertex
100
AcDb2dVertex
 10
-17.8865980807925
 20
59.24180091920751
 30
0
  0
VERTEX
  5
5C
100
AcDbEntity
  8
s001-#def-active-grp
  6
CONTINUOUS
 62
    7
420
    0
370
  211
100
AcDbVertex
100
AcDb2dVertex
 10
-4.008400000000008
 20
73.11999899999999
 30
0
  0
VERTEX
  5
5D
100
AcDbEntity
  8
s001-#def-active-grp
  6
CONTINUOUS
 62
    7
420
    0
370
  211
100
AcDbVertex
100
AcDb2dVertex
 10
-4.008400000000008
 20
119.31
 30
0
  0
SEQEND
  5
5E
100
AcDbEntity
  8
s001-#def-active-grp
  6
CONTINUOUS
 62
    7
420
    0
370
  211
  0
POLYLINE
  5
5F
100
AcDbEntity
  8
s001-#def-active-grp
  6
CONTINUOUS
 62
    7
420
    0
370
  211
100
AcDb2dPolyline
 10
0
 20
0
 30
0
 70
    0
  0
VERTEX
  5
60
100
AcDbEntity
  8
s001-#def-active-grp
  6
CONTINUOUS
 62
    7
420
    0
370
  211
100
AcDbVertex
100
AcDb2dVertex
 10
61.72485375267718
 20
145.8845464581416
 30
0
  0
VERTEX
  5
61
100
AcDbEntity
  8
s001-#def-active-grp
  6
CONTINUOUS
 62
    7
420
    0
370
  211
100
AcDbVertex
100
AcDb2dVertex
 10
79.72485375267718
 20
156.7012002845336
 30
0
  0
VERTEX
  5
62
100
AcDbEntity
  8
s001-#def-active-grp
  6
CONTINUOUS
 62
    7
420
    0
370
  211
100
AcDbVertex
100
AcDb2dVertex
 10
79.72485375267718
 20
145.8845464581416
 30
0
  0
VERTEX
  5
63
100
AcDbEntity
  8
s001-#def-active-grp
  6
CONTINUOUS
 62
    7
420
    0
370
  211
100
AcDbVertex
100
AcDb2dVertex
 10
61.72485375267718
 20
145.8845464581416
 30
0
  0
SEQEND
  5
64
100
AcDbEntity
  8
s001-#def-active-grp
  6
CONTINUOUS
 62
    7
420
    0
370
  211
  0
LINE
  5
65
100
AcDbEntity
  8
s100-new-custom-1
  6
CONTINUOUS
 62
    7
420
    0
370
  211
100
AcDbLine
 10
63.79007518498949
 20
59.65499999999999
 30
48.68553147496697
 11
122.7816
 21
119.31
 31
0
  0
LINE
  5
66
100
AcDbEntity
  8
s100-new-custom-1
  6
CONTINUOUS
 62
    7
420
    0
370
  211
100
AcDbLine
 10
54.98312481501049
 20
59.65499999999999
 30
48.68553147496697
 11
-4.008400000000008
 21
119.31
 31
0
  0
LINE
  5
67
100
AcDbEntity
  8
s100-new-custom-1
  6
CONTINUOUS
 62
    7
420
    0
370
  211
100
AcDbLine
 10
126.9907550321132
 20
23.7
 30
19.34200144089711
 11
151.1816
 21
47.4
 31
0
  0
LINE
  5
68
100
AcDbEntity
  8
s100-new-custom-1
  6
CONTINUOUS
 62
    7
420
    0
370
  211
100
AcDbLine
 10
122.7816
 20
47.4
 30
0
 11
99.34518833097394
 21
23.7
 31
19.34200144089711
  0
DIMENSION
  5
69
100
AcDbEntity
  8
dimensions
  6
CONTINUOUS
 62
    7
420
    0
370
  211
100
AcDbDimension
 10
9332.49707155835
 20
9426.497553386202
 30
2086.265947275555
 11
9332.49707155835
 21
9426.497553386202
 31
2086.265947275555
 70
   33
  1
9.7 m
 71
    5
  3
STANDARD
 53
0
210
0
220
0
230
1
 42
9700
100
AcDbAlignedDimension
 13
6379.007518498949
 23
5965.499999999999
 33
4868.553147496697
 14
12278.16
 24
11931
 34
3.816526572171351e-022
  0
DIMENSION
  5
6A
100
AcDbEntity
  8
dimensions
  6
CONTINUOUS
 62
    7
420
    0
370
  211
100
AcDbDimension
 10
2252.126121475299
 20
6990.282997611198
 30
1237.352527820442
 11
2252.126121475299
 21
6990.282997611198
 31
1237.352527820442
 70
   33
  1
6.032 m REF
 71
    5
  3
STANDARD
 53
0
210
0
220
0
230
1
 42
6032.549656119339
100
AcDbAlignedDimension
 13
-400.8400000000008
 23
7311.9999
 33
-2.200517173619413e-039
 14
3413.058498891849
 24
3856.793254028601
 34
3147.599184669344
  0
DIMENSION
  5
6B
100
AcDbEntity
  8
dimensions
  6
CONTINUOUS
 62
    7
420
    0
370
  211
100
AcDbDimension
 10
2832.556461818481
 20
5751.800827907672
 30
2914.148094303891
 11
2832.556461818481
 21
5751.800827907672
 31
2914.148094303891
 70
   33
  1
1.331 m REF
 71
    5
  3
STANDARD
 53
0
210
0
220
0
230
1
 42
1331.507584648712
100
AcDbAlignedDimension
 13
3413.058498891849
 23
3856.793254028601
 33
3147.599184669344
 14
2081.550914243137
 24
3856.793254028601
 34
3147.599184669344
  0
DIMENSION
  5
6C
100
AcDbEntity
  8
dimensions
  6
CONTINUOUS
 62
    7
420
    0
370
  211
100
AcDbDimension
 10
7720.108759992011
 20
10667.22763376158
 30
4868.553147496697
 11
7720.108759992011
 21
10667.22763376158
 31
4868.553147496697
 70
   33
  1
880.695 REF
 71
    5
  3
STANDARD
 53
0
210
0
220
0
230
1
 42
880.6950369979004
100
AcDbAlignedDimension
 13
5498.312481501049
 23
5965.499999999999
 33
4868.553147496697
 14
6379.007518498949
 24
5965.499999999999
 34
4868.553147496697
  0
DIMENSION
  5
6D
100
AcDbEntity
  8
dimensions
  6
CONTINUOUS
 62
    7
420
    0
370
  211
100
AcDbDimension
 10
10707.06507463283
 20
3490.000455930076
 30
1361.77940006769
 11
10707.06507463283
 21
3490.000455930076
 31
1361.77940006769
 70
   33
  1
3.853 m REF
 71
    5
  3
STANDARD
 53
0
210
0
220
0
230
1
 42
3853.658536585366
100
AcDbAlignedDimension
 13
9934.518833097394
 23
2370
 33
1934.200144089711
 14
12278.16
 24
4740
 34
0
  0
DIMENSION
  5
6E
100
AcDbEntity
  8
dimensions
  6
CONTINUOUS
 62
    7
420
    0
370
  211
100
AcDbDimension
 10
14132.81306373636
 20
3086.222069986775
 30
594.8580897032392
 11
14132.81306373636
 21
3086.222069986775
 31
594.8580897032392
 70
   33
  1
3.9 m
 71
    5
  3
STANDARD
 53
0
210
0
220
0
230
1
 42
3900
100
AcDbAlignedDimension
 13
12699.07550321132
 23
2370
 33
1934.200144089711
 14
15118.16
 24
4740
 34
1.926896638206321e-022
  0
DIMENSION
  5
6F
100
AcDbEntity
  8
dimensions
  6
CONTINUOUS
 62
    7
420
    0
370
  211
100
AcDbDimension
 10
8177.130898873591
 20
3790.179978150416
 30
3418.776897628117
 11
8177.130898873591
 21
3790.179978150416
 31
3418.776897628117
 70
   33
  1
5.846 m REF
 71
    5
  3
STANDARD
 53
0
210
0
220
0
230
1
 42
5846.341463414633
100
AcDbAlignedDimension
 13
9934.518833097394
 23
2370
 33
1934.200144089711
 14
6379.007518498949
 24
5965.499999999999
 34
4868.553147496697
  0
DIMENSION
  5
70
100
AcDbEntity
  8
dimensions
  6
CONTINUOUS
 62
    7
420
    0
370
  211
100
AcDbDimension
 10
728.7392603195651
 20
5320.16677600803
 30
1778.633217748481
 11
728.7392603195651
 21
5320.16677600803
 31
1778.633217748481
 70
   33
  1
5.292 m REF
 71
    5
  3
STANDARD
 53
0
210
0
220
0
230
1
 42
5292.267779016187
100
AcDbAlignedDimension
 13
2081.550914243137
 23
3856.793254028601
 33
3147.599184669344
 14
-400.8400000000008
 24
7311.9999
 34
-2.200517173619413e-039
  0
DIMENSION
  5
71
100
AcDbEntity
  8
dimensions
  6
CONTINUOUS
 62
    7
420
    0
370
  211
100
AcDbDimension
 10
-172.7004063822139
 20
3835.46086004846
 30
1697.994818247801
 11
-172.7004063822139
 21
3835.46086004846
 31
1697.994818247801
 70
   32
  1
4.988 m REF
 71
    5
  3
STANDARD
 53
0
210
0
220
0
230
1
 42
4988.578120317481
100
AcDbAlignedDimension
 13
2081.550914243137
 23
3856.793254028601
 33
3147.599184669344
 14
-1788.65980807925
 24
3835.46086004846
 34
0
 50
180
100
AcDbRotatedDimension
  0
DIMENSION
  5
72
100
AcDbEntity
  8
dimensions
  6
CONTINUOUS
 62
    7
420
    0
370
  211
100
AcDbDimension
 10
2799.678026469784
 20
1970.522801871203
 30
1573.799592334673
 11
2799.678026469784
 21
1970.522801871203
 31
1573.799592334673
 70
   32
  1
4.978 m REF
 71
    5
  3
STANDARD
 53
0
210
0
220
0
230
1
 42
4978.175853829557
100
AcDbAlignedDimension
 13
3413.058498891849
 23
3856.793254028601
 33
3147.599184669344
 14
2799.678026469784
 24
0
 34
0
 50
270
100
AcDbRotatedDimension
  0
DIMENSION
  5
73
100
AcDbEntity
  8
dimensions
  6
CONTINUOUS
 62
    7
420
    0
370
  211
100
AcDbDimension
 10
5919.728112252844
 20
8914.948864691918
 30
2434.276573748348
 11
5919.728112252844
 21
8914.948864691918
 31
2434.276573748348
 70
   32
  1
7.7 m
 71
    5
  3
STANDARD
 53
0
210
0
220
0
230
1
 42
7700
100
AcDbAlignedDimension
 13
5498.312481501049
 23
5965.499999999999
 33
4868.553147496697
 14
5919.728112252844
 24
11931
 34
0
 50
90
100
AcDbRotatedDimension
  0
DIMENSION
  5
74
100
AcDbEntity
  8
dimensions
  6
CONTINUOUS
 62
    7
420
    0
370
  211
100
AcDbDimension
 10
9517.231576389595
 20
5941.898353978579
 30
2447.536254529106
 11
9517.231576389595
 21
5941.898353978579
 31
2447.536254529106
 70
   32
  1
7.648 m REF
 71
    5
  3
STANDARD
 53
0
210
0
220
0
230
1
 42
7648.712947287275
100
AcDbAlignedDimension
 13
6379.007518498949
 23
5965.499999999999
 33
4868.553147496697
 14
12278.16
 24
5941.898353978579
 34
4.547473508864641e-013
100
AcDbRotatedDimension
  0
DIMENSION
  5
75
100
AcDbEntity
  8
dimensions
  6
CONTINUOUS
 62
    7
420
    0
370
  211
100
AcDbDimension
 10
6342.954585989437
 20
3023.192735946218
 30
2434.276573748349
 11
6342.954585989437
 21
3023.192735946218
 31
2434.276573748349
 70
   32
  1
7.699 m REF
 71
    5
  3
STANDARD
 53
0
210
0
220
0
230
1
 42
7699.999999999999
100
AcDbAlignedDimension
 13
5498.312481501049
 23
5965.499999999999
 33
4868.553147496697
 14
6342.954585989437
 24
4.547473508864641e-013
 34
4.547473508864641e-013
 50
270
100
AcDbRotatedDimension
  0
DIMENSION
  5
76
100
AcDbEntity
  8
dimensions
  6
CONTINUOUS
 62
    7
420
    0
370
  211
100
AcDbDimension
 10
12699.07550321132
 20
3555
 30
967.1000720448554
 11
12699.07550321132
 21
3555
 31
967.1000720448554
 70
   32
  1
3.059 m REF
 71
    5
  3
STANDARD
 53
0
210
0
220
0
230
1
 42
3059.089766155393
100
AcDbAlignedDimension
 13
12699.07550321132
 23
2370
 33
1934.200144089711
 14
12699.07550321132
 24
4740
 34
0
 50
90
100
AcDbRotatedDimension
  0
DIMENSION
  5
77
100
AcDbEntity
  8
dimensions
  6
CONTINUOUS
 62
    7
420
    0
370
  211
100
AcDbDimension
 10
-2917.515038367399
 20
3809.095145706567
 30
0
 11
-2917.515038367399
 21
3809.095145706567
 31
0
 70
   33
  1
4.134 m REF
 71
    5
  3
STANDARD
 53
0
210
0
220
0
230
1
 42
4134.7736757843
100
AcDbAlignedDimension
 13
-1788.65980807925
 23
1789.406416136451
 33
0
 14
-1788.65980807925
 24
5924.180091920751
 34
0
  0
DIMENSION
  5
78
100
AcDbEntity
  8
dimensions
  6
CONTINUOUS
 62
    7
420
    0
370
  211
100
AcDbDimension
 10
-1731.346817414617
 20
391.5730529474739
 30
0
 11
-1731.346817414617
 21
391.5730529474739
 31
0
 70
   33
  1
2.53 m REF
 71
    5
  3
STANDARD
 53
0
210
0
220
0
230
1
 42
2530.074945757219
100
AcDbAlignedDimension
 13
1.286153771528471e-028
 23
-5.048837386273291e-029
 33
0
 14
-1788.65980807925
 24
1789.406416136451
 34
0
  0
DIMENSION
  5
79
100
AcDbEntity
  8
dimensions
  6
CONTINUOUS
 62
    7
420
    0
370
  211
100
AcDbDimension
 10
-1618.197322682343
 20
6950.780277754499
 30
0
 11
-1618.197322682343
 21
6950.780277754499
 31
0
 70
   33
  1
1.962 m REF
 71
    5
  3
STANDARD
 53
0
210
0
220
0
230
1
 42
1962.6735947157
100
AcDbAlignedDimension
 13
-1788.65980807925
 23
5924.180091920751
 33
0
 14
-400.8400000000008
 24
7311.9999
 34
0
  0
DIMENSION
  5
7A
100
AcDbEntity
  8
dimensions
  6
CONTINUOUS
 62
    7
420
    0
370
  211
100
AcDbDimension
 10
-681.0404750860156
 20
9713.941837003575
 30
0
 11
-681.0404750860156
 21
9713.941837003575
 31
0
 70
   33
  1
4.619 m REF
 71
    5
  3
STANDARD
 53
0
210
0
220
0
230
1
 42
4619.0001
100
AcDbAlignedDimension
 13
-400.8400000000008
 23
7311.9999
 33
0
 14
-400.8400000000008
 24
11931
 34
0
  0
DIMENSION
  5
7B
100
AcDbEntity
  8
dimensions
  6
CONTINUOUS
 62
    7
420
    0
370
  211
100
AcDbDimension
 10
6072.655189721619
 20
12635.51142443882
 30
0
 11
6072.655189721619
 21
12635.51142443882
 31
0
 70
   33
  1
12.679 m REF
 71
    5
  3
STANDARD
 53
0
210
0
220
0
230
1
 42
12679
100
AcDbAlignedDimension
 13
-400.8400000000008
 23
11931
 33
0
 14
12278.16
 24
11931
 34
0
  0
DIMENSION
  5
7C
100
AcDbEntity
  8
dimensions
  6
CONTINUOUS
 62
    7
420
    0
370
  211
100
AcDbDimension
 10
13076.3056954032
 20
8331.224211099738
 30
0
 11
13076.3056954032
 21
8331.224211099738
 31
0
 70
   33
  1
7.191 m REF
 71
    5
  3
STANDARD
 53
0
210
0
220
0
230
1
 42
7191
100
AcDbAlignedDimension
 13
12278.16
 23
11931
 33
0
 14
12278.16
 24
4740
 34
0
  0
DIMENSION
  5
7D
100
AcDbEntity
  8
dimensions
  6
CONTINUOUS
 62
    7
420
    0
370
  211
100
AcDbDimension
 10
7676.33322496648
 20
-1550.244016368371
 30
0
 11
7676.33322496648
 21
-1550.244016368371
 31
0
 70
   33
  1
15.118 m REF
 71
    5
  3
STANDARD
 53
0
210
0
220
0
230
1
 42
15118.16
100
AcDbAlignedDimension
 13
15118.16
 23
-5.048837386273291e-029
 33
0
 14
1.286153771528471e-028
 24
-5.048837386273291e-029
 34
0
  0
DIMENSION
  5
7E
100
AcDbEntity
  8
dimensions
  6
CONTINUOUS
 62
    7
420
    0
370
  211
100
AcDbDimension
 10
12684.84810194028
 20
1096.445296048144
 30
895.0496365455872
 11
12684.84810194028
 21
1096.445296048144
 31
895.0496365455872
 70
   32
  1
3.059 m REF
 71
    5
  3
STANDARD
 53
0
210
0
220
0
230
1
 42
3059.089766155393
100
AcDbAlignedDimension
 13
12699.07550321132
 23
2370
 33
1934.200144089711
 14
12684.84810194028
 24
2.273736754432321e-013
 34
0
 50
270
100
AcDbRotatedDimension
  0
DIMENSION
  5
7F
100
AcDbEntity
  8
dimensions
  6
CONTINUOUS
 62
    7
420
    0
370
  211
100
AcDbDimension
 10
14245.15983984478
 20
2381.282151163338
 30
971.4305085991439
 11
14245.15983984478
 21
2381.282151163338
 31
971.4305085991439
 70
   32
  1
3.097 m REF
 71
    5
  3
STANDARD
 53
0
210
0
220
0
230
1
 42
3097.272994103039
100
AcDbAlignedDimension
 13
12699.07550321132
 23
2370
 33
1934.200144089711
 14
15118.16
 24
2381.282151163338
 34
0
100
AcDbRotatedDimension
  0
DIMENSION
  5
80
100
AcDbEntity
  8
dimensions
  6
CONTINUOUS
 62
    7
420
    0
370
  211
100
AcDbDimension
 10
-3716.8093944071
 20
4874.179414012168
 30
0
 11
-3716.8093944071
 21
4874.179414012168
 31
0
 70
   32
  1
11.931 m REF
 71
    5
  3
STANDARD
 53
0
210
0
220
0
230
1
 42
11931
100
AcDbAlignedDimension
 13
1.286153771528471e-028
 23
-5.048837386273291e-029
 33
0
 14
-400.8400000000008
 24
11931
 34
0
 50
90
100
AcDbRotatedDimension
  0
DIMENSION
  5
81
100
AcDbEntity
  8
dimensions
  6
CONTINUOUS
 62
    7
420
    0
370
  211
100
AcDbDimension
 10
130.8460621499118
 20
2507.089491947963
 30
1807.434812525341
 11
130.8460621499118
 21
2507.089491947963
 31
1807.434812525341
 70
   33
  1
5.4 m
 71
    5
  3
STANDARD
 53
0
210
0
220
0
230
1
 42
5400
100
AcDbAlignedDimension
 13
2081.550914243137
 23
3856.793254028601
 33
3147.599184669344
 14
-1788.65980807925
 24
1789.406416136451
 34
5.322308054589563e-022
  0
DIMENSION
  5
82
100
AcDbEntity
  8
dimensions
  6
CONTINUOUS
 62
    7
420
    0
370
  211
100
AcDbDimension
 10
1665.641804269615
 20
1574.195995669772
 30
1446.374656409818
 11
1665.641804269615
 21
1574.195995669772
 31
1446.374656409818
 70
   33
  1
5.395 m REF
 71
    5
  3
STANDARD
 53
0
210
0
220
0
230
1
 42
5395.839975410509
100
AcDbAlignedDimension
 13
1.286153771528471e-028
 23
-5.048837386273291e-029
 33
0
 14
2081.550914243137
 24
3856.793254028601
 34
3147.599184669344
  0
DIMENSION
  5
83
100
AcDbEntity
  8
dimensions
  6
CONTINUOUS
 62
    7
420
    0
370
  211
100
AcDbDimension
 10
11243.37140031956
 20
2161.682018857327
 30
1893.525774965468
 11
11243.37140031956
 21
2161.682018857327
 31
1893.525774965468
 70
   33
  1
2.764 m REF
 71
    5
  3
STANDARD
 53
0
210
0
220
0
230
1
 42
2764.556670113925
100
AcDbAlignedDimension
 13
9934.518833097394
 23
2370
 33
1934.200144089711
 14
12699.07550321132
 24
2370
 34
1934.200144089711
  0
DIMENSION
  5
84
100
AcDbEntity
  8
dimensions
  6
CONTINUOUS
 62
    7
420
    0
370
  211
100
AcDbDimension
 10
4351.556009393255
 20
2268.952613421908
 30
2434.276573748348
 11
4351.556009393255
 21
2268.952613421908
 31
2434.276573748348
 70
   33
  1
9.7 m
 71
    5
  3
STANDARD
 53
0
210
0
220
0
230
1
 42
9700
100
AcDbAlignedDimension
 13
5498.312481501049
 23
5965.499999999999
 33
4868.553147496697
 14
-400.8400000000008
 24
-5.048837386273291e-029
 34
0
  0
DIMENSION
  5
85
100
AcDbEntity
  8
dimensions
  6
CONTINUOUS
 62
    7
420
    0
370
  211
100
AcDbDimension
 10
2808.557957408821
 20
8968.217539774569
 30
2434.276573748348
 11
2808.557957408821
 21
8968.217539774569
 31
2434.276573748348
 70
   33
  1
9.7 m
 71
    5
  3
STANDARD
 53
0
210
0
220
0
230
1
 42
9700
100
AcDbAlignedDimension
 13
5498.312481501049
 23
5965.499999999999
 33
4868.553147496697
 14
-400.8400000000008
 24
11931
 34
-5.729954420162982e-022
  0
DIMENSION
  5
86
100
AcDbEntity
  8
dimensions
  6
CONTINUOUS
 62
    7
420
    0
370
  211
100
AcDbDimension
 10
4891.783735636966
 20
4556.819438962836
 30
4008.07616608302
 11
4891.783735636966
 21
4556.819438962836
 31
4008.07616608302
 70
   33
  1
3.428 m REF
 71
    5
  3
STANDARD
 53
0
210
0
220
0
230
1
 42
3428.791456864063
100
AcDbAlignedDimension
 13
3413.058498891849
 23
3856.793254028601
 33
3147.599184669344
 14
5498.312481501049
 24
5965.499999999999
 34
4868.553147496697
  0
DIMENSION
  5
87
100
AcDbEntity
  8
dimensions
  6
CONTINUOUS
 62
    7
420
    0
370
  211
100
AcDbDimension
 10
-259.2729146836614
 20
4681.872247977644
 30
1573.799592334672
 11
-259.2729146836614
 21
4681.872247977644
 31
1573.799592334672
 70
   33
  1
5.4 m REF
 71
    5
  3
STANDARD
 53
0
210
0
220
0
230
1
 42
5400
100
AcDbAlignedDimension
 13
2081.550914243137
 23
3856.793254028601
 33
3147.599184669344
 14
-1788.65980807925
 24
5924.180091920751
 34
-5.496484661266709e-022
  0
TEXT
  5
88
100
AcDbEntity
  8
text
  6
CONTINUOUS
 62
    7
420
    0
370
  211
100
AcDbText
 10
14172.93845224805
 20
10204.82814326043
 30
0
 40
251.3555957077326
  1
высота конька
 50
0
 41
1
 51
0
  7
unicode
 71
    0
 72
    1
 11
14172.93845224805
 21
10204.82814326043
 31
0
210
0
220
0
230
1
100
AcDbText
 73
    2
  0
TEXT
  5
89
100
AcDbEntity
  8
text
  6
CONTINUOUS
 62
    7
420
    0
370
  211
100
AcDbText
 10
4768.252292557076
 20
-529.5938792305859
 30
0
 40
251.3555957077326
  1
высота конька
 50
0
 41
1
 51
0
  7
unicode
 71
    0
 72
    1
 11
4768.252292557076
 21
-529.5938792305859
 31
0
210
0
220
0
230
1
100
AcDbText
 73
    2
  0
TEXT
  5
8A
100
AcDbEntity
  8
text
  6
CONTINUOUS
 62
    7
420
    0
370
  211
100
AcDbText
 10
9074.082932072146
 20
-551.4508875529987
 30
0
 40
251.3555957077326
  1
высота конька
 50
0
 41
1
 51
0
  7
unicode
 71
    0
 72
    1
 11
9074.082932072146
 21
-551.4508875529987
 31
0
210
0
220
0
230
1
100
AcDbText
 73
    2
  0
ENDSEC
  0
SECTION
  2
OBJECTS
  0
DICTIONARY
  5
C
330
0
100
AcDbDictionary
281
    1
  3
ACAD_GROUP
350
D
  0
DICTIONARY
  5
D
330
C
100
AcDbDictionary
281
    1
  0
ENDSEC
  0
EOF
