999
dxfrw 0.6.3
  0
SECTION
  2
HEADER
  9
$ACADVER
  1
AC1021
  9
$DWGCODEPAGE
  3
ANSI_1252
  9
$INSBASE
 10
0
 20
0
 30
0
  9
$EXTMIN
 10
1e+020
 20
1e+020
 30
1e+020
  9
$EXTMAX
 10
-1e+020
 20
-1e+020
 30
-1e+020
  9
$LIMMIN
 10
0
 20
0
  9
$LIMMAX
 10
420
 20
297
  9
$ORTHOMODE
 70
    0
  9
$REGENMODE
 70
    1
  9
$FILLMODE
 70
    1
  9
$QTEXTMODE
 70
    0
  9
$MIRRTEXT
 70
    0
  9
$LTSCALE
 40
1
  9
$ATTMODE
 70
    0
  9
$TEXTSIZE
 40
2.5
  9
$TRACEWID
 40
15.68
  9
$TEXTSTYLE
  7
STANDARD
  9
$CLAYER
  8
0
  9
$CELTYPE
  6
BYLAYER
  9
$CECOLOR
 62
  256
  9
$CELTSCALE
 40
1
  9
$DISPSILH
 70
    0
  9
$DIMSCALE
 40
1
  9
$DIMASZ
 40
2.5
  9
$DIMEXO
 40
0.625
  9
$DIMDLI
 40
3.75
  9
$DIMRND
 40
0
  9
$DIMDLE
 40
0
  9
$DIMEXE
 40
1.25
  9
$DIMTP
 40
0
  9
$DIMTM
 40
0
  9
$DIMTXT
 40
2.5
  9
$DIMCEN
 40
2.5
  9
$DIMTSZ
 40
0
  9
$DIMTOL
 70
    0
  9
$DIMLIM
 70
    0
  9
$DIMTIH
 70
    0
  9
$DIMTOH
 70
    0
  9
$DIMSE1
 70
    0
  9
$DIMSE2
 70
    0
  9
$DIMTAD
 70
    1
  9
$DIMZIN
 70
    8
  9
$DIMBLK
  1

  9
$DIMASO
 70
    1
  9
$DIMSHO
 70
    1
  9
$DIMPOST
  1

  9
$DIMAPOST
  1

  9
$DIMALT
 70
    0
  9
$DIMALTD
 70
    3
  9
$DIMALTF
 40
0.03937
  9
$DIMLFAC
 40
1
  9
$DIMTOFL
 70
    1
  9
$DIMTVP
 40
0
  9
$DIMTIX
 70
    0
  9
$DIMSOXD
 70
    0
  9
$DIMSAH
 70
    0
  9
$DIMBLK1
  1

  9
$DIMBLK2
  1

  9
$DIMSTYLE
  2
STANDARD
  9
$DIMCLRD
 70
    0
  9
$DIMCLRE
 70
    0
  9
$DIMCLRT
 70
    0
  9
$DIMTFAC
 40
1
  9
$DIMGAP
 40
0.625
  9
$DIMJUST
 70
    0
  9
$DIMSD1
 70
    0
  9
$DIMSD2
 70
    0
  9
$DIMTOLJ
 70
    0
  9
$DIMTZIN
 70
    8
  9
$DIMALTZ
 70
    0
  9
$DIMALTTZ
 70
    0
  9
$DIMUPT
 70
    0
  9
$DIMDEC
 70
    2
  9
$DIMTDEC
 70
    2
  9
$DIMALTU
 70
    2
  9
$DIMALTTD
 70
    3
  9
$DIMTXSTY
  7
STANDARD
  9
$DIMAUNIT
 70
    0
  9
$DIMADEC
 70
    0
  9
$DIMALTRND
 40
0
  9
$DIMAZIN
 70
    0
  9
$DIMDSEP
 70
   44
  9
$DIMATFIT
 70
    3
  9
$DIMFRAC
 70
    0
  9
$DIMLDRBLK
  1
STANDARD
  9
$DIMLUNIT
 70
    2
  9
$DIMLWD
 70
   -2
  9
$DIMLWE
 70
   -2
  9
$DIMTMOVE
 70
    0
  9
$DIMFXL
 40
1
  9
$DIMFXLON
 70
    0
  9
$DIMJOGANG
 40
0.7854
  9
$DIMTFILL
 70
    0
  9
$DIMTFILLCLR
 70
    0
  9
$DIMARCSYM
 70
    0
  9
$DIMLTYPE
  6

  9
$DIMLTEX1
  6

  9
$DIMLTEX2
  6

  9
$LUNITS
 70
    2
  9
$LUPREC
 70
    4
  9
$SKETCHINC
 40
1
  9
$FILLETRAD
 40
0
  9
$AUNITS
 70
    0
  9
$AUPREC
 70
    2
  9
$MENU
  1
.
  9
$ELEVATION
 40
0
  9
$PELEVATION
 40
0
  9
$THICKNESS
 40
0
  9
$LIMCHECK
 70
    0
  9
$CHAMFERA
 40
0
  9
$CHAMFERB
 40
0
  9
$CHAMFERC
 40
0
  9
$CHAMFERD
 40
0
  9
$SKPOLY
 70
    0
  9
$USRTIMER
 70
    1
  9
$ANGBASE
 50
0
  9
$ANGDIR
 70
    0
  9
$PDMODE
 70
   34
  9
$PDSIZE
 40
0
  9
$PLINEWID
 40
0
  9
$SPLFRAME
 70
    0
  9
$SPLINETYPE
 70
    2
  9
$SPLINESEGS
 70
    8
  9
$HANDSEED
  5
20000
  9
$SURFTAB1
 70
    6
  9
$SURFTAB2
 70
    6
  9
$SURFTYPE
 70
    6
  9
$SURFU
 70
    6
  9
$SURFV
 70
    6
  9
$UCSBASE
  2

  9
$UCSNAME
  2

  9
$UCSORG
 10
0
 20
0
 30
0
  9
$UCSXDIR
 10
1
 20
0
 30
0
  9
$UCSYDIR
 10
0
 20
1
 30
0
  9
$UCSORTHOREF
  2

  9
$UCSORTHOVIEW
 70
    0
  9
$UCSORGTOP
 10
0
 20
0
 30
0
  9
$UCSORGBOTTOM
 10
0
 20
0
 30
0
  9
$UCSORGLEFT
 10
0
 20
0
 30
0
  9
$UCSORGRIGHT
 10
0
 20
0
 30
0
  9
$UCSORGFRONT
 10
0
 20
0
 30
0
  9
$UCSORGBACK
 10
0
 20
0
 30
0
  9
$PUCSBASE
  2

  9
$PUCSNAME
  2

  9
$PUCSORG
 10
0
 20
0
 30
0
  9
$PUCSXDIR
 10
1
 20
0
 30
0
  9
$PUCSYDIR
 10
0
 20
1
 30
0
  9
$PUCSORTHOREF
  2

  9
$PUCSORTHOVIEW
 70
    0
  9
$PUCSORGTOP
 10
0
 20
0
 30
0
  9
$PUCSORGBOTTOM
 10
0
 20
0
 30
0
  9
$PUCSORGLEFT
 10
0
 20
0
 30
0
  9
$PUCSORGRIGHT
 10
0
 20
0
 30
0
  9
$PUCSORGFRONT
 10
0
 20
0
 30
0
  9
$PUCSORGBACK
 10
0
 20
0
 30
0
  9
$USERI1
 70
    0
  9
$USERI2
 70
    0
  9
$USERI3
 70
    0
  9
$USERI4
 70
    0
  9
$USERI5
 70
    0
  9
$USERR1
 40
0
  9
$USERR2
 40
0
  9
$USERR3
 40
0
  9
$USERR4
 40
0
  9
$USERR5
 40
0
  9
$WORLDVIEW
 70
    1
  9
$SHADEDGE
 70
    3
  9
$SHADEDIF
 70
   70
  9
$TILEMODE
 70
    1
  9
$MAXACTVP
 70
   64
  9
$PINSBASE
 10
0
 20
0
 30
0
  9
$PLIMCHECK
 70
    0
  9
$PEXTMIN
 10
0
 20
0
 30
0
  9
$PEXTMAX
 10
0
 20
0
 30
0
  9
$PLIMMIN
 10
0
 20
0
  9
$PLIMMAX
 10
297
 20
210
  9
$UNITMODE
 70
    0
  9
$VISRETAIN
 70
    1
  9
$PLINEGEN
 70
    0
  9
$PSLTSCALE
 70
    1
  9
$TREEDEPTH
 70
 3020
  9
$CMLSTYLE
  2
Standard
  9
$CMLJUST
 70
    0
  9
$CMLSCALE
 40
20
  9
$PROXYGRAPHICS
 70
    1
  9
$MEASUREMENT
 70
    1
  9
$CELWEIGHT
370
   -1
  9
$ENDCAPS
280
    0
  9
$JOINSTYLE
280
    0
  9
$LWDISPLAY
290
    0
  9
$INSUNITS
 70
    0
  9
$HYPERLINKBASE
  1

  9
$STYLESHEET
  1

  9
$XEDIT
290
    1
  9
$CEPSNTYPE
380
    0
  9
$PSTYLEMODE
290
    1
  9
$EXTNAMES
290
    1
  9
$PSVPSCALE
 40
0
  9
$OLESTARTUP
290
    0
  9
$SORTENTS
280
  127
  9
$INDEXCTL
280
    0
  9
$HIDETEXT
280
    1
  9
$XCLIPFRAME
290
    0
  9
$HALOGAP
280
    0
  9
$OBSCOLOR
 70
  257
  9
$OBSLTYPE
280
    0
  9
$INTERSECTIONDISPLAY
280
    0
  9
$INTERSECTIONCOLOR
 70
  257
  9
$DIMASSOC
280
    1
  9
$PROJECTNAME
  1

  9
$CAMERADISPLAY
290
    0
  9
$LENSLENGTH
 40
50
  9
$CAMERAHEIGHT
 40
0
  9
$STEPSPERSEC
 40
2
  9
$STEPSIZE
 40
50
  9
$3DDWFPREC
 40
2
  9
$PSOLWIDTH
 40
5
  9
$PSOLHEIGHT
 40
80
  9
$LOFTANG1
 40
1.570796326794897
  9
$LOFTANG2
 40
1.570796326794897
  9
$LOFTMAG1
 40
0
  9
$LOFTMAG2
 40
0
  9
$LOFTPARAM
 70
    7
  9
$LOFTNORMALS
280
    1
  9
$LATITUDE
 40
1
  9
$LONGITUDE
 40
1
  9
$NORTHDIRECTION
 40
0
  9
$TIMEZONE
 70
-8000
  9
$LIGHTGLYPHDISPLAY
280
    1
  9
$TILEMODELIGHTSYNCH
280
    1
  9
$SOLIDHIST
280
    1
  9
$SHOWHIST
280
    1
  9
$DWFFRAME
280
    2
  9
$DGNFRAME
280
    0
  9
$REALWORLDSCALE
290
    1
  9
$INTERFERECOLOR
 62
    1
  9
$CSHADOW
280
    0
  9
$SHADOWPLANELOCATION
 40
0
  0
ENDSEC
  0
SECTION
  2
CLASSES
  0
ENDSEC
  0
SECTION
  2
TABLES
  0
TABLE
  2
VPORT
  5
8
330
0
100
AcDbSymbolTable
 70
    1
  0
VPORT
  5
31
330
2
100
AcDbSymbolTableRecord
100
AcDbViewportTableRecord
  2
*ACTIVE
 70
    0
 10
0
 20
0
 11
1
 21
1
 12
0.651828
 22
-0.16
 13
0
 23
0
 14
10
 24
10
 15
10
 25
10
 16
0
 26
0
 36
1
 17
0
 27
0
 37
0
 40
5.13732
 41
2.4426877
 42
50
 43
0
 44
0
 50
0
 51
0
 71
    0
 72
  100
 73
    1
 74
    3
 75
    0
 76
    0
 77
    0
 78
    0
281
    0
 65
    1
110
0
120
0
130
0
111
1
121
0
131
0
112
0
122
1
132
0
 79
    0
146
0
348
10020
 60
    7
 61
    5
292
1
282
    1
141
0
142
0
 63
  250
421
3358443
  0
ENDTAB
  0
TABLE
  2
LTYPE
  5
5
330
0
100
AcDbSymbolTable
 70
    4
  0
LTYPE
  5
14
330
5
100
AcDbSymbolTableRecord
100
AcDbLinetypeTableRecord
  2
ByBlock
 70
    0
  3

 72
   65
 73
    0
 40
0
  0
LTYPE
  5
15
330
5
100
AcDbSymbolTableRecord
100
AcDbLinetypeTableRecord
  2
ByLayer
 70
    0
  3

 72
   65
 73
    0
 40
0
  0
LTYPE
  5
16
330
5
100
AcDbSymbolTableRecord
100
AcDbLinetypeTableRecord
  2
Continuous
 70
    0
  3
Solid line
 72
   65
 73
    0
 40
0
  0
LTYPE
  5
32
330
5
100
AcDbSymbolTableRecord
100
AcDbLinetypeTableRecord
  2
DASHED
 70
    0
  3

 72
   65
 73
    2
 40
3
 49
1
 74
    0
 49
-2
 74
    0
  0
LTYPE
  5
33
330
5
100
AcDbSymbolTableRecord
100
AcDbLinetypeTableRecord
  2
DASHED
 70
    0
  3

 72
   65
 73
    2
 40
2
 49
1
 74
    0
 49
-1
 74
    0
  0
LTYPE
  5
34
330
5
100
AcDbSymbolTableRecord
100
AcDbLinetypeTableRecord
  2
DASHEDX2
 70
    0
  3

 72
   65
 73
    2
 40
3
 49
2
 74
    0
 49
-1
 74
    0
  0
LTYPE
  5
35
330
5
100
AcDbSymbolTableRecord
100
AcDbLinetypeTableRecord
  2
DASHDOT
 70
    0
  3

 72
   65
 73
    4
 40
3
 49
1
 74
    0
 49
-1
 74
    0
 49
0
 74
    0
 49
-1
 74
    0
  0
LTYPE
  5
36
330
5
100
AcDbSymbolTableRecord
100
AcDbLinetypeTableRecord
  2
DIVIDE
 70
    0
  3

 72
   65
 73
    6
 40
4
 49
1
 74
    0
 49
-1
 74
    0
 49
0
 74
    0
 49
-1
 74
    0
 49
0
 74
    0
 49
-1
 74
    0
  0
LTYPE
  5
37
330
5
100
AcDbSymbolTableRecord
100
AcDbLinetypeTableRecord
  2
DOT
 70
    0
  3

 72
   65
 73
    2
 40
1
 49
1
 74
    0
 49
0
 74
    0
  0
ENDTAB
  0
TABLE
  2
LAYER
  5
2
330
0
100
AcDbSymbolTable
 70
    1
  0
LAYER
  5
38
330
2
100
AcDbSymbolTableRecord
100
AcDbLayerTableRecord
  2
dimensions
 70
    0
 62
    7
  6
CONTINUOUS
370
   -3
390
F
  0
LAYER
  5
39
330
2
100
AcDbSymbolTableRecord
100
AcDbLayerTableRecord
  2
text
 70
    0
 62
    7
  6
CONTINUOUS
370
   -3
390
F
  0
LAYER
  5
3A
330
2
100
AcDbSymbolTableRecord
100
AcDbLayerTableRecord
  2
s001-#def-active-grp
 70
    0
 62
    7
  6
CONTINUOUS
370
   -3
390
F
  0
LAYER
  5
3B
330
2
100
AcDbSymbolTableRecord
100
AcDbLayerTableRecord
  2
s100-new-custom-1
 70
    0
 62
    7
  6
CONTINUOUS
370
   -3
390
F
  0
LAYER
  5
10
330
2
100
AcDbSymbolTableRecord
100
AcDbLayerTableRecord
  2
0
 70
    0
 62
    7
  6
CONTINUOUS
370
   -3
390
F
  0
ENDTAB
  0
TABLE
  2
STYLE
  5
3
330
0
100
AcDbSymbolTable
 70
    3
  0
STYLE
  5
3C
330
2
100
AcDbSymbolTableRecord
100
AcDbTextStyleTableRecord
  2
unicode
 70
    0
 40
0
 41
1
 50
0
 71
    0
 42
1
  3
unicode
  4

  0
STYLE
  5
3D
330
2
100
AcDbSymbolTableRecord
100
AcDbTextStyleTableRecord
  2
Standard
 70
    0
 40
0
 41
1
 50
0
 71
    0
 42
1
  3
txt
  4

  0
ENDTAB
  0
TABLE
  2
VIEW
  5
6
330
0
100
AcDbSymbolTable
 70
    0
  0
ENDTAB
  0
TABLE
  2
UCS
  5
7
330
0
100
AcDbSymbolTable
 70
    0
  0
ENDTAB
  0
TABLE
  2
APPID
  5
9
330
0
100
AcDbSymbolTable
 70
    1
  0
APPID
  5
12
330
9
100
AcDbSymbolTableRecord
100
AcDbRegAppTableRecord
  2
ACAD
 70
    0
  0
ENDTAB
  0
TABLE
  2
DIMSTYLE
  5
A
330
0
100
AcDbSymbolTable
 70
    1
100
AcDbDimStyleTable
 71
    1
  0
DIMSTYLE
105
3E
330
A
100
AcDbSymbolTableRecord
100
AcDbDimStyleTableRecord
  2
Standard
 70
    0
 40
1
 41
2.5
 42
0.625
 43
3.75
 44
1.25
 45
0
 46
0
 47
0
 48
0
140
2.5
141
2.5
142
0
143
0.03937007874015748
144
1
145
0
146
1
147
0.625
148
0
 71
    0
 72
    0
 73
    0
 74
    0
 75
    0
 76
    0
 77
    1
 78
    8
 79
    0
170
    0
171
    3
172
    1
173
    0
174
    0
175
    0
176
    0
177
    0
178
    0
179
    0
271
    2
272
    2
273
    2
274
    3
275
    0
276
    0
277
    2
278
   44
279
    0
280
    0
281
    0
282
    0
283
    0
284
    8
285
    0
286
    0
288
    0
289
    3
341

371
   -2
372
   -2
  0
ENDTAB
  0
TABLE
  2
BLOCK_RECORD
  5
1
330
0
100
AcDbSymbolTable
 70
    2
  0
BLOCK_RECORD
  5
1F
330
1
100
AcDbSymbolTableRecord
100
AcDbBlockTableRecord
  2
*Model_Space
 70
    0
280
    1
281
    0
  0
BLOCK_RECORD
  5
1E
330
1
100
AcDbSymbolTableRecord
100
AcDbBlockTableRecord
  2
*Paper_Space
 70
    0
280
    1
281
    0
  0
ENDTAB
  0
ENDSEC
  0
SECTION
  2
BLOCKS
  0
BLOCK
  5
20
330
1F
100
AcDbEntity
  8
0
100
AcDbBlockBegin
  2
*Model_Space
 70
    0
 10
0
 20
0
 30
0
  3
*Model_Space
  1

  0
ENDBLK
  5
21
330
1F
100
AcDbEntity
  8
0
100
AcDbBlockEnd
  0
BLOCK
  5
1C
330
1B
100
AcDbEntity
  8
0
100
AcDbBlockBegin
  2
*Paper_Space
 70
    0
 10
0
 20
0
 30
0
  3
*Paper_Space
  1

  0
ENDBLK
  5
1D
330
1F
100
AcDbEntity
  8
0
100
AcDbBlockEnd
  0
ENDSEC
  0
SECTION
  2
ENTITIES
  0
POLYLINE
  5
3F
100
AcDbEntity
  8
s100-new-custom-1
  6
CONTINUOUS
 62
    7
420
    0
370
  211
100
AcDb2dPolyline
 10
0
 20
0
 30
0
 70
    0
  0
VERTEX
  5
40
100
AcDbEntity
  8
s100-new-custom-1
  6
CONTINUOUS
 62
    7
420
    0
370
  211
100
AcDbVertex
100
AcDb2dVertex
 10
136.7092257319063
 20
32.41485823562661
 30
0
  0
VERTEX
  5
41
100
AcDbEntity
  8
s100-new-custom-1
  6
CONTINUOUS
 62
    7
420
    0
370
  211
100
AcDbVertex
100
AcDb2dVertex
 10
115.893716589475
 20
22.43635662611022
 30
0
  0
VERTEX
  5
42
100
AcDbEntity
  8
s100-new-custom-1
  6
CONTINUOUS
 62
    7
420
    0
370
  211
100
AcDbVertex
100
AcDb2dVertex
 10
102.5786407429879
 20
22.43635662611019
 30
0
  0
VERTEX
  5
43
100
AcDbEntity
  8
s100-new-custom-1
  6
CONTINUOUS
 62
    7
420
    0
370
  211
100
AcDbVertex
100
AcDb2dVertex
 10
81.72610091689586
 20
16.98059784601621
 30
0
  0
VERTEX
  5
44
100
AcDbEntity
  8
s100-new-custom-1
  6
CONTINUOUS
 62
    7
420
    0
370
  211
100
AcDbVertex
100
AcDb2dVertex
 10
140.7176257319064
 20
-60.01940215398379
 30
0
  0
SEQEND
  5
45
100
AcDbEntity
  8
s100-new-custom-1
  6
CONTINUOUS
 62
    7
420
    0
370
  211
  0
POLYLINE
  5
46
100
AcDbEntity
  8
s100-new-custom-1
  6
CONTINUOUS
 62
    7
420
    0
370
  211
100
AcDb2dPolyline
 10
0
 20
0
 30
0
 70
    0
  0
VERTEX
  5
47
100
AcDbEntity
  8
s100-new-custom-1
  6
CONTINUOUS
 62
    7
420
    0
370
  211
100
AcDbVertex
100
AcDb2dVertex
 10
154.5958238126989
 20
-13.48214999600099
 30
0
  0
VERTEX
  5
48
100
AcDbEntity
  8
s100-new-custom-1
  6
CONTINUOUS
 62
    7
420
    0
370
  211
100
AcDbVertex
100
AcDb2dVertex
 10
115.893716589475
 20
22.43635662611022
 30
0
  0
VERTEX
  5
49
100
AcDbEntity
  8
s100-new-custom-1
  6
CONTINUOUS
 62
    7
420
    0
370
  211
100
AcDbVertex
100
AcDb2dVertex
 10
140.7176257319064
 20
-24.23414878184094
 30
0
  0
VERTEX
  5
4A
100
AcDbEntity
  8
s100-new-custom-1
  6
CONTINUOUS
 62
    7
420
    0
370
  211
100
AcDbVertex
100
AcDb2dVertex
 10
102.5786407429879
 20
22.43635662611019
 30
0
  0
SEQEND
  5
4B
100
AcDbEntity
  8
s100-new-custom-1
  6
CONTINUOUS
 62
    7
420
    0
370
  211
  0
POLYLINE
  5
4C
100
AcDbEntity
  8
s100-new-custom-1
  6
CONTINUOUS
 62
    7
420
    0
370
  211
100
AcDb2dPolyline
 10
0
 20
0
 30
0
 70
    0
  0
VERTEX
  5
4D
100
AcDbEntity
  8
s100-new-custom-1
  6
CONTINUOUS
 62
    7
420
    0
370
  211
100
AcDbVertex
100
AcDb2dVertex
 10
81.72610091689586
 20
16.98059784601621
 30
0
  0
VERTEX
  5
4E
100
AcDbEntity
  8
s100-new-custom-1
  6
CONTINUOUS
 62
    7
420
    0
370
  211
100
AcDbVertex
100
AcDb2dVertex
 10
72.91915054691687
 20
16.98059784601621
 30
0
  0
VERTEX
  5
4F
100
AcDbEntity
  8
s100-new-custom-1
  6
CONTINUOUS
 62
    7
420
    0
370
  211
100
AcDbVertex
100
AcDb2dVertex
 10
13.92762573190636
 20
-60.01940215398379
 30
0
  0
SEQEND
  5
50
100
AcDbEntity
  8
s100-new-custom-1
  6
CONTINUOUS
 62
    7
420
    0
370
  211
  0
POLYLINE
  5
51
100
AcDbEntity
  8
s100-new-custom-1
  6
CONTINUOUS
 62
    7
420
    0
370
  211
100
AcDb2dPolyline
 10
0
 20
0
 30
0
 70
    0
  0
VERTEX
  5
52
100
AcDbEntity
  8
s100-new-custom-1
  6
CONTINUOUS
 62
    7
420
    0
370
  211
100
AcDbVertex
100
AcDb2dVertex
 10
72.91915054691687
 20
16.98059784601621
 30
0
  0
VERTEX
  5
53
100
AcDbEntity
  8
s100-new-custom-1
  6
CONTINUOUS
 62
    7
420
    0
370
  211
100
AcDbVertex
100
AcDb2dVertex
 10
37.3640374009324
 20
26.28306758549224
 30
0
  0
VERTEX
  5
54
100
AcDbEntity
  8
s100-new-custom-1
  6
CONTINUOUS
 62
    7
420
    0
370
  211
100
AcDbVertex
100
AcDb2dVertex
 10
9.71847069979316
 20
26.28306758549224
 30
0
  0
VERTEX
  5
55
100
AcDbEntity
  8
s100-new-custom-1
  6
CONTINUOUS
 62
    7
420
    0
370
  211
100
AcDbVertex
100
AcDb2dVertex
 10
-14.47237426809365
 20
32.41485823562661
 30
0
  0
SEQEND
  5
56
100
AcDbEntity
  8
s100-new-custom-1
  6
CONTINUOUS
 62
    7
420
    0
370
  211
  0
POLYLINE
  5
57
100
AcDbEntity
  8
s001-#def-active-grp
  6
CONTINUOUS
 62
    7
420
    0
370
  211
100
AcDb2dPolyline
 10
0
 20
0
 30
0
 70
    0
  0
VERTEX
  5
58
100
AcDbEntity
  8
s001-#def-active-grp
  6
CONTINUOUS
 62
    7
420
    0
370
  211
100
AcDbVertex
100
AcDb2dVertex
 10
13.92762573190636
 20
32.41485823562661
 30
0
  0
VERTEX
  5
59
100
AcDbEntity
  8
s001-#def-active-grp
  6
CONTINUOUS
 62
    7
420
    0
370
  211
100
AcDbVertex
100
AcDb2dVertex
 10
72.91915054691687
 20
16.98059784601621
 30
0
  0
VERTEX
  5
5A
100
AcDbEntity
  8
s001-#def-active-grp
  6
CONTINUOUS
 62
    7
420
    0
370
  211
100
AcDbVertex
100
AcDb2dVertex
 10
81.72610091689586
 20
16.98059784601621
 30
0
  0
VERTEX
  5
5B
100
AcDbEntity
  8
s001-#def-active-grp
  6
CONTINUOUS
 62
    7
420
    0
370
  211
100
AcDbVertex
100
AcDb2dVertex
 10
102.5786407429879
 20
22.43635662611019
 30
0
  0
VERTEX
  5
5C
100
AcDbEntity
  8
s001-#def-active-grp
  6
CONTINUOUS
 62
    7
420
    0
370
  211
100
AcDbVertex
100
AcDb2dVertex
 10
115.893716589475
 20
22.43635662611022
 30
0
  0
VERTEX
  5
5D
100
AcDbEntity
  8
s001-#def-active-grp
  6
CONTINUOUS
 62
    7
420
    0
370
  211
100
AcDbVertex
100
AcDb2dVertex
 10
137.1273610038136
 20
32.61530317575142
 30
0
  0
VERTEX
  5
5E
100
AcDbEntity
  8
s001-#def-active-grp
  6
CONTINUOUS
 62
    7
420
    0
370
  211
100
AcDbVertex
100
AcDb2dVertex
 10
-15.26315998597369
 20
32.61530317575142
 30
0
  0
VERTEX
  5
5F
100
AcDbEntity
  8
s001-#def-active-grp
  6
CONTINUOUS
 62
    7
420
    0
370
  211
100
AcDbVertex
100
AcDb2dVertex
 10
9.71847069979316
 20
26.28306758549224
 30
0
  0
VERTEX
  5
60
100
AcDbEntity
  8
s001-#def-active-grp
  6
CONTINUOUS
 62
    7
420
    0
370
  211
100
AcDbVertex
100
AcDb2dVertex
 10
37.3640374009324
 20
26.28306758549224
 30
0
  0
VERTEX
  5
61
100
AcDbEntity
  8
s001-#def-active-grp
  6
CONTINUOUS
 62
    7
420
    0
370
  211
100
AcDbVertex
100
AcDb2dVertex
 10
72.91915054691687
 20
16.98059784601621
 30
0
  0
SEQEND
  5
62
100
AcDbEntity
  8
s001-#def-active-grp
  6
CONTINUOUS
 62
    7
420
    0
370
  211
  0
POLYLINE
  5
63
100
AcDbEntity
  8
s001-#def-active-grp
  6
CONTINUOUS
 62
    7
420
    0
370
  211
100
AcDb2dPolyline
 10
0
 20
0
 30
0
 70
    0
  0
VERTEX
  5
64
100
AcDbEntity
  8
s001-#def-active-grp
  6
CONTINUOUS
 62
    7
420
    0
370
  211
100
AcDbVertex
100
AcDb2dVertex
 10
37.3640374009324
 20
26.28306758549224
 30
0
  0
VERTEX
  5
65
100
AcDbEntity
  8
s001-#def-active-grp
  6
CONTINUOUS
 62
    7
420
    0
370
  211
100
AcDbVertex
100
AcDb2dVertex
 10
13.23114088570084
 20
-5.216932414507769
 30
0
  0
VERTEX
  5
66
100
AcDbEntity
  8
s001-#def-active-grp
  6
CONTINUOUS
 62
    7
420
    0
370
  211
100
AcDbVertex
100
AcDb2dVertex
 10
-15.19127941342813
 20
-5.216932414507769
 30
0
  0
VERTEX
  5
67
100
AcDbEntity
  8
s001-#def-active-grp
  6
CONTINUOUS
 62
    7
420
    0
370
  211
100
AcDbVertex
100
AcDb2dVertex
 10
9.71847069979316
 20
26.28306758549224
 30
0
  0
VERTEX
  5
68
100
AcDbEntity
  8
s001-#def-active-grp
  6
CONTINUOUS
 62
    7
420
    0
370
  211
100
AcDbVertex
100
AcDb2dVertex
 10
-15.11850271015252
 20
-5.124901537330679
 30
0
  0
VERTEX
  5
69
100
AcDbEntity
  8
s001-#def-active-grp
  6
CONTINUOUS
 62
    7
420
    0
370
  211
100
AcDbVertex
100
AcDb2dVertex
 10
-15.11850271015252
 20
32.57863607575836
 30
0
  0
VERTEX
  5
6A
100
AcDbEntity
  8
s001-#def-active-grp
  6
CONTINUOUS
 62
    7
420
    0
370
  211
100
AcDbVertex
100
AcDb2dVertex
 10
9.71847069979316
 20
26.28306758549224
 30
0
  0
SEQEND
  5
6B
100
AcDbEntity
  8
s001-#def-active-grp
  6
CONTINUOUS
 62
    7
420
    0
370
  211
  0
POLYLINE
  5
6C
100
AcDbEntity
  8
s001-#def-active-grp
  6
CONTINUOUS
 62
    7
420
    0
370
  211
100
AcDb2dPolyline
 10
0
 20
0
 30
0
 70
    0
  0
VERTEX
  5
6D
100
AcDbEntity
  8
s001-#def-active-grp
  6
CONTINUOUS
 62
    7
420
    0
370
  211
100
AcDbVertex
100
AcDb2dVertex
 10
115.893716589475
 20
22.43635662611022
 30
0
  0
VERTEX
  5
6E
100
AcDbEntity
  8
s001-#def-active-grp
  6
CONTINUOUS
 62
    7
420
    0
370
  211
100
AcDbVertex
100
AcDb2dVertex
 10
141.2031312137716
 20
-25.14692952426855
 30
0
  0
VERTEX
  5
6F
100
AcDbEntity
  8
s001-#def-active-grp
  6
CONTINUOUS
 62
    7
420
    0
370
  211
100
AcDbVertex
100
AcDb2dVertex
 10
155.3527587945666
 20
-14.1846433770955
 30
0
  0
VERTEX
  5
70
100
AcDbEntity
  8
s001-#def-active-grp
  6
CONTINUOUS
 62
    7
420
    0
370
  211
100
AcDbVertex
100
AcDb2dVertex
 10
115.893716589475
 20
22.43635662611022
 30
0
  0
VERTEX
  5
71
100
AcDbEntity
  8
s001-#def-active-grp
  6
CONTINUOUS
 62
    7
420
    0
370
  211
100
AcDbVertex
100
AcDb2dVertex
 10
155.4602507957951
 20
-14.28440415073191
 30
0
  0
VERTEX
  5
72
100
AcDbEntity
  8
s001-#def-active-grp
  6
CONTINUOUS
 62
    7
420
    0
370
  211
100
AcDbVertex
100
AcDb2dVertex
 10
155.4602507957951
 20
18.46483887372389
 30
0
  0
VERTEX
  5
73
100
AcDbEntity
  8
s001-#def-active-grp
  6
CONTINUOUS
 62
    7
420
    0
370
  211
100
AcDbVertex
100
AcDb2dVertex
 10
115.893716589475
 20
22.43635662611022
 30
0
  0
VERTEX
  5
74
100
AcDbEntity
  8
s001-#def-active-grp
  6
CONTINUOUS
 62
    7
420
    0
370
  211
100
AcDbVertex
100
AcDb2dVertex
 10
137.1154745506608
 20
32.60960506906062
 30
0
  0
VERTEX
  5
75
100
AcDbEntity
  8
s001-#def-active-grp
  6
CONTINUOUS
 62
    7
420
    0
370
  211
100
AcDbVertex
100
AcDb2dVertex
 10
155.3511589445545
 20
18.47578904240895
 30
0
  0
VERTEX
  5
76
100
AcDbEntity
  8
s001-#def-active-grp
  6
CONTINUOUS
 62
    7
420
    0
370
  211
100
AcDbVertex
100
AcDb2dVertex
 10
115.893716589475
 20
22.43635662611022
 30
0
  0
SEQEND
  5
77
100
AcDbEntity
  8
s001-#def-active-grp
  6
CONTINUOUS
 62
    7
420
    0
370
  211
  0
POLYLINE
  5
78
100
AcDbEntity
  8
s001-#def-active-grp
  6
CONTINUOUS
 62
    7
420
    0
370
  211
100
AcDb2dPolyline
 10
0
 20
0
 30
0
 70
    0
  0
VERTEX
  5
79
100
AcDbEntity
  8
s001-#def-active-grp
  6
CONTINUOUS
 62
    7
420
    0
370
  211
100
AcDbVertex
100
AcDb2dVertex
 10
140.7176257319064
 20
-60.01940215398379
 30
0
  0
VERTEX
  5
7A
100
AcDbEntity
  8
s001-#def-active-grp
  6
CONTINUOUS
 62
    7
420
    0
370
  211
100
AcDbVertex
100
AcDb2dVertex
 10
140.7176257319064
 20
-24.23414878184094
 30
0
  0
VERTEX
  5
7B
100
AcDbEntity
  8
s001-#def-active-grp
  6
CONTINUOUS
 62
    7
420
    0
370
  211
100
AcDbVertex
100
AcDb2dVertex
 10
154.5958238126989
 20
-13.48214999600099
 30
0
  0
VERTEX
  5
7C
100
AcDbEntity
  8
s001-#def-active-grp
  6
CONTINUOUS
 62
    7
420
    0
370
  211
100
AcDbVertex
100
AcDb2dVertex
 10
154.5958238126989
 20
18.5516063194422
 30
0
  0
VERTEX
  5
7D
100
AcDbEntity
  8
s001-#def-active-grp
  6
CONTINUOUS
 62
    7
420
    0
370
  211
100
AcDbVertex
100
AcDb2dVertex
 10
136.7092257319063
 20
32.41485823562661
 30
0
  0
VERTEX
  5
7E
100
AcDbEntity
  8
s001-#def-active-grp
  6
CONTINUOUS
 62
    7
420
    0
370
  211
100
AcDbVertex
100
AcDb2dVertex
 10
-14.47237426809365
 20
32.41485823562661
 30
0
  0
VERTEX
  5
7F
100
AcDbEntity
  8
s001-#def-active-grp
  6
CONTINUOUS
 62
    7
420
    0
370
  211
100
AcDbVertex
100
AcDb2dVertex
 10
-14.47237426809365
 20
-4.30783007606171
 30
0
  0
VERTEX
  5
80
100
AcDbEntity
  8
s001-#def-active-grp
  6
CONTINUOUS
 62
    7
420
    0
370
  211
100
AcDbVertex
100
AcDb2dVertex
 10
13.92762573190636
 20
-4.30783007606171
 30
0
  0
VERTEX
  5
81
100
AcDbEntity
  8
s001-#def-active-grp
  6
CONTINUOUS
 62
    7
420
    0
370
  211
100
AcDbVertex
100
AcDb2dVertex
 10
13.92762573190636
 20
-60.01940215398379
 30
0
  0
VERTEX
  5
82
100
AcDbEntity
  8
s001-#def-active-grp
  6
CONTINUOUS
 62
    7
420
    0
370
  211
100
AcDbVertex
100
AcDb2dVertex
 10
140.7176257319064
 20
-60.01940215398379
 30
0
  0
SEQEND
  5
83
100
AcDbEntity
  8
s001-#def-active-grp
  6
CONTINUOUS
 62
    7
420
    0
370
  211
  0
LINE
  5
84
100
AcDbEntity
  8
s100-new-custom-1
  6
CONTINUOUS
 62
    7
420
    0
370
  211
100
AcDbLine
 10
115.893716589475
 20
22.43635662611022
 11
154.5958238126989
 21
18.5516063194422
  0
LINE
  5
85
100
AcDbEntity
  8
s100-new-custom-1
  6
CONTINUOUS
 62
    7
420
    0
370
  211
100
AcDbLine
 10
9.71847069979316
 20
26.28306758549224
 11
-14.47237426809365
 21
-4.30783007606171
  0
LINE
  5
86
100
AcDbEntity
  8
s100-new-custom-1
  6
CONTINUOUS
 62
    7
420
    0
370
  211
100
AcDbLine
 10
13.92762573190636
 20
-4.30783007606171
 11
37.3640374009324
 21
26.28306758549224
  0
DIMENSION
  5
87
100
AcDbEntity
  8
dimensions
  6
CONTINUOUS
 62
    7
420
    0
370
  211
100
AcDbDimension
 10
20.03861799872046
 20
-9.813090071073482
 30
1.13686837721616e-015
 11
20.03861799872046
 21
-9.813090071073482
 31
1.13686837721616e-015
 70
   32
  1
90.91 REF
 71
    5
  3
STANDARD
 53
0
210
0
220
0
230
1
 42
-90.91023384460603
100
AcDbAlignedDimension
 13
13.23114088570084
 23
-5.216932414507775
 33
1.989519660128281e-015
 14
13.92762573190636
 24
-4.307830076061713
 34
8.526512829121202e-016
 50
270
100
AcDbRotatedDimension
  0
DIMENSION
  5
88
100
AcDbEntity
  8
dimensions
  6
CONTINUOUS
 62
    7
420
    0
370
  211
100
AcDbDimension
 10
5.033755267177512
 20
6.507140260588162
 30
1.13686837721616e-015
 11
5.033755267177512
 21
6.507140260588162
 31
1.13686837721616e-015
 70
   32
  1
3.15 m
 71
    5
  3
STANDARD
 53
0
210
0
220
0
230
1
 42
3150
100
AcDbAlignedDimension
 13
9.71847069979316
 23
26.28306758549224
 33
0
 14
5.033755267177512
 24
-5.216932414507774
 34
2.842170943040401e-015
 50
270
100
AcDbRotatedDimension
  0
DIMENSION
  5
89
100
AcDbEntity
  8
dimensions
  6
CONTINUOUS
 62
    7
420
    0
370
  211
100
AcDbDimension
 10
-0.2480824775174551
 20
-8.43767427443103
 30
3.410605131648481e-015
 11
-0.2480824775174551
 21
-8.43767427443103
 31
3.410605131648481e-015
 70
   33
  1
2.842 m
 71
    5
  3
STANDARD
 53
0
210
0
220
0
230
1
 42
2842.242029912897
100
AcDbAlignedDimension
 13
13.23114088570084
 23
-5.216932414507775
 33
1.989519660128281e-015
 14
-15.19127941342813
 24
-5.216932414507775
 34
1.989519660128281e-015
  0
DIMENSION
  5
8A
100
AcDbEntity
  8
dimensions
  6
CONTINUOUS
 62
    7
420
    0
370
  211
100
AcDbDimension
 10
-5.648313703474705
 20
13.75279170526273
 30
0
 11
-5.648313703474705
 21
13.75279170526273
 31
0
 70
   33
  1
4.015 m
 71
    5
  3
STANDARD
 53
0
210
0
220
0
230
1
 42
4015.900460299195
100
AcDbAlignedDimension
 13
-15.19127941342813
 23
-5.216932414507775
 33
1.989519660128281e-015
 14
9.71847069979316
 24
26.28306758549224
 34
0
  0
DIMENSION
  5
8B
100
AcDbEntity
  8
dimensions
  6
CONTINUOUS
 62
    7
420
    0
370
  211
100
AcDbDimension
 10
19.23717174664716
 20
28.77182265906929
 30
2.273736754432321e-015
 11
19.23717174664716
 21
28.77182265906929
 31
2.273736754432321e-015
 70
   33
  1
2.764 m
 71
    5
  3
STANDARD
 53
0
210
0
220
0
230
1
 42
2764.556670113923
100
AcDbAlignedDimension
 13
9.71847069979316
 23
26.28306758549224
 33
0
 14
37.3640374009324
 24
26.28306758549224
 34
0
  0
DIMENSION
  5
8C
100
AcDbEntity
  8
dimensions
  6
CONTINUOUS
 62
    7
420
    0
370
  211
100
AcDbDimension
 10
27.52071602226082
 20
8.372945517524952
 30
2.273736754432321e-015
 11
27.52071602226082
 21
8.372945517524952
 31
2.273736754432321e-015
 70
   33
  1
3.968 m
 71
    5
  3
STANDARD
 53
0
210
0
220
0
230
1
 42
3968.181818181818
100
AcDbAlignedDimension
 13
37.3640374009324
 23
26.28306758549224
 33
0
 14
13.23114088570084
 24
-5.216932414507775
 34
1.989519660128281e-015
  0
ENDSEC
  0
SECTION
  2
OBJECTS
  0
DICTIONARY
  5
C
330
0
100
AcDbDictionary
281
    1
  3
ACAD_GROUP
350
D
  0
DICTIONARY
  5
D
330
C
100
AcDbDictionary
281
    1
  0
ENDSEC
  0
EOF
